<?xml version="1.0" encoding="UTF-8" standalone="no"?>
<svg
   xmlns:dc="http://purl.org/dc/elements/1.1/"
   xmlns:cc="http://creativecommons.org/ns#"
   xmlns:rdf="http://www.w3.org/1999/02/22-rdf-syntax-ns#"
   xmlns:svg="http://www.w3.org/2000/svg"
   xmlns="http://www.w3.org/2000/svg"
   xmlns:sodipodi="http://sodipodi.sourceforge.net/DTD/sodipodi-0.dtd"
   xmlns:inkscape="http://www.inkscape.org/namespaces/inkscape"
   width="200"
   height="200"
   viewBox="0 0 52.916668 52.916666"
   version="1.1"
   id="svg8"
   inkscape:version="1.0.2-2 (e86c870879, 2021-01-15)"
   sodipodi:docname="conspiratorialist.svg">
  <defs
     id="defs2">
    <rect
       x="-130.60224"
       y="134.99334"
       width="68.567998"
       height="20.579753"
       id="rect880" />
    <inkscape:path-effect
       effect="envelope"
       id="path-effect4658"
       is_visible="true"
       yy="true"
       xx="true"
       bendpath1="m -199.08406,108.42369 h 7.0057"
       bendpath2="m -192.07836,108.42369 v 6.75242"
       bendpath3="m -199.08406,115.17611 h 7.0057"
       bendpath4="m -199.08406,108.42369 v 6.75242" />
    <inkscape:path-effect
       effect="bend_path"
       id="path-effect4656"
       is_visible="true"
       bendpath="m -192.00142,114.60623 c 2.12577,-0.53066 4.48261,0.85111 7.0057,0"
       prop_scale="1"
       scale_y_rel="false"
       vertical="false"
       bendpath-nodetypes="cc" />
    <inkscape:path-effect
       effect="bounding_box"
       id="path-effect4654"
       is_visible="true"
       linkedpath=""
       visualbounds="false" />
  </defs>
  <sodipodi:namedview
     id="base"
     pagecolor="#ffffff"
     bordercolor="#666666"
     borderopacity="1.0"
     inkscape:pageopacity="0.0"
     inkscape:pageshadow="2"
     inkscape:zoom="1.6290957"
     inkscape:cx="186.51222"
     inkscape:cy="87.031845"
     inkscape:document-units="px"
     inkscape:current-layer="layer1"
     showgrid="false"
     fit-margin-top="0"
     fit-margin-left="0"
     fit-margin-right="0"
     fit-margin-bottom="0"
     inkscape:window-width="1280"
     inkscape:window-height="961"
     inkscape:window-x="-8"
     inkscape:window-y="-8"
     inkscape:window-maximized="1"
     showguides="false"
     inkscape:object-nodes="true"
     units="px"
     inkscape:snap-page="true"
     inkscape:document-rotation="0" />
  <metadata
     id="metadata5">
    <rdf:RDF>
      <cc:Work
         rdf:about="">
        <dc:format>image/svg+xml</dc:format>
        <dc:type
           rdf:resource="http://purl.org/dc/dcmitype/StillImage" />
        <dc:title />
      </cc:Work>
    </rdf:RDF>
  </metadata>
  <g
     inkscape:label="Layer 1"
     inkscape:groupmode="layer"
     id="layer1"
     transform="translate(98.048812,-95.14345)">
    <rect
       y="95.143448"
       x="-98.048813"
       height="52.916668"
       width="52.916668"
       id="rect5163"
       style="fill:#222222;fill-opacity:1;fill-rule:nonzero;stroke:none;stroke-width:0.5;stroke-linecap:butt;stroke-linejoin:round;stroke-miterlimit:4;stroke-dasharray:none;stroke-dashoffset:0;stroke-opacity:0.909449;paint-order:normal"
       rx="3.96875"
       ry="3.96875" />
    <rect
       style="fill:#6c9569;fill-opacity:1;fill-rule:nonzero;stroke:none;stroke-width:0.5;stroke-linecap:butt;stroke-linejoin:round;stroke-miterlimit:4;stroke-dasharray:none;stroke-dashoffset:0;stroke-opacity:0.909449;paint-order:normal"
       id="rect5165"
       width="47.625"
       height="47.625"
       x="-95.402977"
       y="97.789284"
       rx="2.6458333"
       ry="2.6458333" />
    <path
       style="fill:#222222;fill-opacity:1;fill-rule:nonzero;stroke:none;stroke-width:0.5;stroke-linecap:butt;stroke-linejoin:round;stroke-miterlimit:4;stroke-dasharray:none;stroke-dashoffset:0;stroke-opacity:0.909449;paint-order:normal"
       d="m -96.593602,132.18512 v 8.33438 c 0,3.07816 2.478088,5.55624 5.55625,5.55624 h 38.893748 c 3.078162,0 5.55625,-2.47808 5.55625,-5.55624 v -8.33438 z"
       id="rect5205-3-6"
       inkscape:connector-curvature="0" />
    <g
       transform="matrix(0.00269914,0,0,-0.00269503,-89.120852,125.83759)"
       fill="#000000"
       stroke="none"
       id="g883"
       style="fill:#222222;fill-opacity:1">
      <path
         d="M 6045,8123 C 5853,7865 4598,6179 3256,4375 1913,2571 632,850 409,550 L 4,5 3202,2 C 4961,1 7839,1 9598,2 l 3198,3 -454,610 c -801,1075 -3583,4813 -4713,6330 -602,809 -1123,1509 -1158,1558 -35,48 -67,87 -71,87 -4,0 -164,-210 -355,-467 z M 7700,6153 C 8873,4581 9467,3782 9692,3475 l 81,-110 -54,50 c -116,108 -345,282 -559,425 -411,275 -866,499 -1319,649 -723,239 -1522,300 -2226,170 -771,-143 -1571,-516 -2324,-1085 -101,-76 -193,-146 -204,-154 -11,-8 60,94 159,227 98,132 847,1141 1664,2241 817,1101 1487,2001 1490,2001 3,0 588,-781 1300,-1736 z M 5400,3538 c -111,-188 -190,-379 -226,-543 -27,-127 -23,-314 10,-440 65,-249 244,-505 514,-733 48,-41 66,-62 54,-62 -33,0 -283,49 -412,80 -614,150 -1178,422 -1633,786 -126,101 -129,80 27,203 439,343 965,585 1631,749 68,17 69,15 35,-40 z m 2119,12 c 489,-128 970,-338 1336,-583 81,-55 286,-211 308,-235 17,-18 14,-22 -85,-101 -491,-391 -1054,-657 -1707,-806 -156,-35 -349,-70 -356,-63 -2,2 23,25 55,52 148,119 311,305 401,456 170,287 189,617 54,960 -43,108 -92,210 -141,291 -35,59 -39,69 -26,69 4,0 76,-18 161,-40 z M 6224,3437 c 21,-72 40,-140 43,-149 3,-11 0,-18 -9,-18 -31,0 -161,-72 -206,-114 -70,-66 -121,-180 -122,-273 v -33 h -150 -150 v 39 c 0,22 6,73 14,113 37,194 137,336 319,455 58,38 200,112 217,113 3,0 22,-60 44,-133 z m -2087,-12 c -350,-189 -687,-423 -906,-630 l -63,-61 89,-84 c 216,-204 632,-466 1040,-654 536,-247 1100,-402 1678,-462 227,-24 666,-24 890,0 801,84 1541,359 2255,838 127,86 387,278 457,339 l 33,28 -73,65 c -264,237 -595,459 -956,641 -61,31 -111,58 -111,60 0,17 1036,-314 1410,-451 79,-29 146,-52 147,-50 2,1 -11,22 -29,47 -17,24 -27,40 -21,34 7,-5 450,-604 987,-1330 l 975,-1320 -2770,-3 c -1523,-1 -4015,-1 -5538,0 l -2770,3 958,1289 957,1290 250,82 c 723,240 1250,413 1259,413 6,1 -61,-38 -148,-84 z m -1067,-29 c 0,-2 -8,-10 -17,-17 -16,-13 -17,-12 -4,4 13,16 21,21 21,13 z m 6721,-53 c 13,-16 12,-17 -3,-4 -10,7 -18,15 -18,17 0,8 8,3 21,-13 z m 30,-40 c 13,-16 12,-17 -3,-4 -10,7 -18,15 -18,17 0,8 8,3 21,-13 z m 39,-53 c 12,-16 19,-30 16,-30 -2,0 -14,14 -26,30 -12,17 -19,30 -16,30 2,0 14,-13 26,-30 z m 41,-57 c 13,-16 12,-17 -3,-4 -10,7 -18,15 -18,17 0,8 8,3 21,-13 z m 30,-40 c 13,-16 12,-17 -3,-4 -10,7 -18,15 -18,17 0,8 8,3 21,-13 z m 30,-40 c 13,-16 12,-17 -3,-4 -10,7 -18,15 -18,17 0,8 8,3 21,-13 z"
         id="path881"
         style="fill:#222222;fill-opacity:1" />
    </g>
    <g
       aria-label="CONSPIRATORIALIST"
       transform="scale(0.96028473,1.0413578)"
       id="text1569"
       style="font-weight:bold;font-size:4.46659px;line-height:1.25;font-family:Montserrat;-inkscape-font-specification:'Montserrat Bold';stroke-width:0.319041">
      <path
         d="m -97.504464,135.4289 q -0.477925,0 -0.866518,-0.20546 -0.384127,-0.20993 -0.607456,-0.57619 -0.218863,-0.37073 -0.218863,-0.83525 0,-0.46453 0.218863,-0.83079 0.223329,-0.37072 0.607456,-0.57619 0.388593,-0.20993 0.870985,-0.20993 0.40646,0 0.732521,0.14293 0.330527,0.14293 0.553857,0.41093 l -0.464525,0.42879 q -0.317128,-0.36626 -0.78612,-0.36626 -0.290329,0 -0.518125,0.12953 -0.227796,0.12507 -0.357327,0.35286 -0.125064,0.2278 -0.125064,0.51813 0,0.29033 0.125064,0.51812 0.129531,0.2278 0.357327,0.35733 0.227796,0.12506 0.518125,0.12506 0.468992,0 0.78612,-0.37072 l 0.464525,0.42879 q -0.22333,0.27246 -0.553857,0.41539 -0.330528,0.14293 -0.736988,0.14293 z"
         style="fill:#eeeeee;fill-opacity:1;stroke-width:0.319041"
         id="path1344" />
      <path
         d="m -94.279592,135.4289 q -0.486859,0 -0.879919,-0.20993 -0.388593,-0.20993 -0.611922,-0.57619 -0.218863,-0.37072 -0.218863,-0.83078 0,-0.46006 0.218863,-0.82632 0.223329,-0.37073 0.611922,-0.58066 0.39306,-0.20993 0.879919,-0.20993 0.486858,0 0.875451,0.20993 0.388594,0.20993 0.611923,0.58066 0.22333,0.36626 0.22333,0.82632 0,0.46006 -0.22333,0.83078 -0.223329,0.36626 -0.611923,0.57619 -0.388593,0.20993 -0.875451,0.20993 z m 0,-0.61639 q 0.276928,0 0.500258,-0.12506 0.223329,-0.12953 0.348394,-0.35733 0.129531,-0.22779 0.129531,-0.51812 0,-0.29033 -0.129531,-0.51813 -0.125065,-0.22779 -0.348394,-0.35286 -0.22333,-0.12953 -0.500258,-0.12953 -0.276929,0 -0.500258,0.12953 -0.22333,0.12507 -0.352861,0.35286 -0.125065,0.2278 -0.125065,0.51813 0,0.29033 0.125065,0.51812 0.129531,0.2278 0.352861,0.35733 0.223329,0.12506 0.500258,0.12506 z"
         style="fill:#eeeeee;fill-opacity:1;stroke-width:0.319041"
         id="path1346" />
      <path
         d="m -89.156414,132.24869 v 3.12662 h -0.594057 l -1.55884,-1.89831 v 1.89831 h -0.714654 v -3.12662 h 0.598523 l 1.554373,1.8983 v -1.8983 z"
         style="fill:#eeeeee;fill-opacity:1;stroke-width:0.319041"
         id="path1348" />
      <path
         d="m -87.387651,135.4289 q -0.370726,0 -0.71912,-0.0983 -0.343928,-0.10273 -0.553858,-0.26353 l 0.245663,-0.54492 q 0.200996,0.14739 0.477925,0.23673 0.276928,0.0893 0.553857,0.0893 0.308195,0 0.455592,-0.0893 0.147398,-0.0938 0.147398,-0.24567 0,-0.11166 -0.08933,-0.18313 -0.08487,-0.0759 -0.22333,-0.12059 -0.133997,-0.0447 -0.36626,-0.0983 -0.357327,-0.0849 -0.585123,-0.16973 -0.227796,-0.0849 -0.39306,-0.27246 -0.160797,-0.1876 -0.160797,-0.50026 0,-0.27246 0.147397,-0.49133 0.147398,-0.22332 0.442192,-0.35286 0.299262,-0.12953 0.728055,-0.12953 0.299261,0 0.585123,0.0715 0.285862,0.0715 0.500258,0.20546 l -0.22333,0.54939 q -0.433259,-0.24566 -0.866518,-0.24566 -0.303728,0 -0.451126,0.0983 -0.14293,0.0983 -0.14293,0.25907 0,0.16079 0.165263,0.24119 0.169731,0.0759 0.513658,0.15187 0.357327,0.0849 0.585124,0.16973 0.227796,0.0849 0.388593,0.26799 0.165264,0.18313 0.165264,0.49579 0,0.268 -0.151864,0.49133 -0.147398,0.21886 -0.446659,0.34839 -0.299262,0.12953 -0.728055,0.12953 z"
         style="fill:#eeeeee;fill-opacity:1;stroke-width:0.319041"
         id="path1350" />
      <path
         d="m -84.211911,132.24869 q 0.415392,0 0.719121,0.13847 0.308194,0.13846 0.473458,0.39306 0.165264,0.25459 0.165264,0.60299 0,0.34392 -0.165264,0.60299 -0.165264,0.25459 -0.473458,0.39306 -0.303729,0.13399 -0.719121,0.13399 h -0.62979 v 0.86206 h -0.723587 v -3.12662 z m -0.0402,1.67497 q 0.326061,0 0.495792,-0.13846 0.16973,-0.14293 0.16973,-0.40199 0,-0.26353 -0.16973,-0.402 -0.169731,-0.14293 -0.495792,-0.14293 h -0.58959 v 1.08538 z"
         style="fill:#eeeeee;fill-opacity:1;stroke-width:0.319041"
         id="path1352" />
      <path
         d="m -82.340418,132.24869 h 0.723587 v 3.12662 h -0.723587 z"
         style="fill:#eeeeee;fill-opacity:1;stroke-width:0.319041"
         id="path1354" />
      <path
         d="m -78.883281,135.37531 -0.60299,-0.87099 h -0.03573 -0.62979 v 0.87099 h -0.723587 v -3.12662 h 1.353377 q 0.415392,0 0.719121,0.13847 0.308194,0.13846 0.473458,0.39306 0.165264,0.25459 0.165264,0.60299 0,0.34839 -0.16973,0.60299 -0.165264,0.25012 -0.473459,0.38412 l 0.701255,1.00499 z m -0.0134,-1.9921 q 0,-0.26353 -0.16973,-0.402 -0.169731,-0.14293 -0.495792,-0.14293 h -0.58959 v 1.08985 h 0.58959 q 0.326061,0 0.495792,-0.14293 0.16973,-0.14293 0.16973,-0.40199 z"
         style="fill:#eeeeee;fill-opacity:1;stroke-width:0.319041"
         id="path1356" />
      <path
         d="m -75.533344,134.70532 h -1.451642 l -0.276928,0.66999 h -0.741454 l 1.393576,-3.12662 h 0.714654 l 1.398043,3.12662 h -0.759321 z m -0.227796,-0.54939 -0.495792,-1.19705 -0.495791,1.19705 z"
         style="fill:#eeeeee;fill-opacity:1;stroke-width:0.319041"
         id="path1358" />
      <path
         d="m -73.679722,132.83828 h -1.000516 v -0.58959 h 2.724619 v 0.58959 h -1.000516 v 2.53703 h -0.723587 z"
         style="fill:#eeeeee;fill-opacity:1;stroke-width:0.319041"
         id="path1360" />
      <path
         d="m -70.097527,135.4289 q -0.486858,0 -0.879918,-0.20993 -0.388593,-0.20993 -0.611923,-0.57619 -0.218863,-0.37072 -0.218863,-0.83078 0,-0.46006 0.218863,-0.82632 0.22333,-0.37073 0.611923,-0.58066 0.39306,-0.20993 0.879918,-0.20993 0.486859,0 0.875452,0.20993 0.388593,0.20993 0.611923,0.58066 0.223329,0.36626 0.223329,0.82632 0,0.46006 -0.223329,0.83078 -0.22333,0.36626 -0.611923,0.57619 -0.388593,0.20993 -0.875452,0.20993 z m 0,-0.61639 q 0.276929,0 0.500258,-0.12506 0.22333,-0.12953 0.348394,-0.35733 0.129532,-0.22779 0.129532,-0.51812 0,-0.29033 -0.129532,-0.51813 -0.125064,-0.22779 -0.348394,-0.35286 -0.223329,-0.12953 -0.500258,-0.12953 -0.276928,0 -0.500258,0.12953 -0.223329,0.12507 -0.35286,0.35286 -0.125065,0.2278 -0.125065,0.51813 0,0.29033 0.125065,0.51812 0.129531,0.2278 0.35286,0.35733 0.22333,0.12506 0.500258,0.12506 z"
         style="fill:#eeeeee;fill-opacity:1;stroke-width:0.319041"
         id="path1362" />
      <path
         d="m -65.849801,135.37531 -0.60299,-0.87099 h -0.03573 -0.629789 v 0.87099 H -67.8419 v -3.12662 h 1.353376 q 0.415393,0 0.719121,0.13847 0.308195,0.13846 0.473459,0.39306 0.165264,0.25459 0.165264,0.60299 0,0.34839 -0.169731,0.60299 -0.165264,0.25012 -0.473458,0.38412 l 0.701254,1.00499 z m -0.0134,-1.9921 q 0,-0.26353 -0.169731,-0.402 -0.16973,-0.14293 -0.495791,-0.14293 h -0.58959 v 1.08985 h 0.58959 q 0.326061,0 0.495791,-0.14293 0.169731,-0.14293 0.169731,-0.40199 z"
         style="fill:#eeeeee;fill-opacity:1;stroke-width:0.319041"
         id="path1364" />
      <path
         d="m -64.558961,132.24869 h 0.723588 v 3.12662 h -0.723588 z"
         style="fill:#eeeeee;fill-opacity:1;stroke-width:0.319041"
         id="path1366" />
      <path
         d="m -61.034828,134.70532 h -1.451642 l -0.276928,0.66999 h -0.741454 l 1.393576,-3.12662 h 0.714654 l 1.398043,3.12662 H -60.7579 Z m -0.227796,-0.54939 -0.495792,-1.19705 -0.495791,1.19705 z"
         style="fill:#eeeeee;fill-opacity:1;stroke-width:0.319041"
         id="path1368" />
      <path
         d="m -59.67252,132.24869 h 0.723587 v 2.53703 h 1.567773 v 0.58959 h -2.29136 z"
         style="fill:#eeeeee;fill-opacity:1;stroke-width:0.319041"
         id="path1370" />
      <path
         d="m -56.974709,132.24869 h 0.723587 v 3.12662 h -0.723587 z"
         style="fill:#eeeeee;fill-opacity:1;stroke-width:0.319041"
         id="path1372" />
      <path
         d="m -54.482355,135.4289 q -0.370727,0 -0.719121,-0.0983 -0.343928,-0.10273 -0.553857,-0.26353 l 0.245662,-0.54492 q 0.200997,0.14739 0.477925,0.23673 0.276929,0.0893 0.553857,0.0893 0.308195,0 0.455593,-0.0893 0.147397,-0.0938 0.147397,-0.24567 0,-0.11166 -0.08933,-0.18313 -0.08487,-0.0759 -0.223329,-0.12059 -0.133998,-0.0447 -0.366261,-0.0983 -0.357327,-0.0849 -0.585123,-0.16973 -0.227796,-0.0849 -0.39306,-0.27246 -0.160797,-0.1876 -0.160797,-0.50026 0,-0.27246 0.147397,-0.49133 0.147398,-0.22332 0.442193,-0.35286 0.299261,-0.12953 0.728054,-0.12953 0.299262,0 0.585123,0.0715 0.285862,0.0715 0.500258,0.20546 l -0.223329,0.54939 q -0.433259,-0.24566 -0.866519,-0.24566 -0.303728,0 -0.451125,0.0983 -0.142931,0.0983 -0.142931,0.25907 0,0.16079 0.165264,0.24119 0.16973,0.0759 0.513658,0.15187 0.357327,0.0849 0.585123,0.16973 0.227796,0.0849 0.388593,0.26799 0.165264,0.18313 0.165264,0.49579 0,0.268 -0.151864,0.49133 -0.147397,0.21886 -0.446659,0.34839 -0.299262,0.12953 -0.728054,0.12953 z"
         style="fill:#eeeeee;fill-opacity:1;stroke-width:0.319041"
         id="path1374" />
      <path
         d="m -52.057004,132.83828 h -1.000516 v -0.58959 h 2.72462 v 0.58959 h -1.000516 v 2.53703 h -0.723588 z"
         style="fill:#eeeeee;fill-opacity:1;stroke-width:0.319041"
         id="path1376" />
    </g>
  </g>
</svg>
