<?xml version="1.0" encoding="UTF-8" standalone="no"?>
<svg
   xmlns:dc="http://purl.org/dc/elements/1.1/"
   xmlns:cc="http://creativecommons.org/ns#"
   xmlns:rdf="http://www.w3.org/1999/02/22-rdf-syntax-ns#"
   xmlns:svg="http://www.w3.org/2000/svg"
   xmlns="http://www.w3.org/2000/svg"
   xmlns:sodipodi="http://sodipodi.sourceforge.net/DTD/sodipodi-0.dtd"
   xmlns:inkscape="http://www.inkscape.org/namespaces/inkscape"
   width="200"
   height="200"
   viewBox="0 0 52.916668 52.916666"
   version="1.1"
   id="svg8"
   inkscape:version="1.0.2-2 (e86c870879, 2021-01-15)"
   sodipodi:docname="nationalist.svg">
  <defs
     id="defs2">
    <rect
       x="-245.96915"
       y="131.25935"
       width="80.635217"
       height="17.025069"
       id="rect849" />
    <rect
       x="-245.59497"
       y="131.91416"
       width="67.041863"
       height="19.614891"
       id="rect858" />
    <inkscape:path-effect
       effect="envelope"
       id="path-effect4658"
       is_visible="true"
       yy="true"
       xx="true"
       bendpath1="m -199.08406,108.42369 h 7.0057"
       bendpath2="m -192.07836,108.42369 v 6.75242"
       bendpath3="m -199.08406,115.17611 h 7.0057"
       bendpath4="m -199.08406,108.42369 v 6.75242" />
    <inkscape:path-effect
       effect="bend_path"
       id="path-effect4656"
       is_visible="true"
       bendpath="m -192.00142,114.60623 c 2.12577,-0.53066 4.48261,0.85111 7.0057,0"
       prop_scale="1"
       scale_y_rel="false"
       vertical="false"
       bendpath-nodetypes="cc" />
    <inkscape:path-effect
       effect="bounding_box"
       id="path-effect4654"
       is_visible="true"
       linkedpath=""
       visualbounds="false" />
  </defs>
  <sodipodi:namedview
     id="base"
     pagecolor="#ffffff"
     bordercolor="#666666"
     borderopacity="1.0"
     inkscape:pageopacity="0.0"
     inkscape:pageshadow="2"
     inkscape:zoom="2.8284271"
     inkscape:cx="189.83228"
     inkscape:cy="110.2596"
     inkscape:document-units="mm"
     inkscape:current-layer="layer1"
     showgrid="false"
     fit-margin-top="0"
     fit-margin-left="0"
     fit-margin-right="0"
     fit-margin-bottom="0"
     inkscape:window-width="1280"
     inkscape:window-height="961"
     inkscape:window-x="-8"
     inkscape:window-y="-8"
     inkscape:window-maximized="1"
     showguides="false"
     inkscape:object-nodes="true"
     units="px"
     inkscape:snap-page="true"
     inkscape:document-rotation="0" />
  <metadata
     id="metadata5">
    <rdf:RDF>
      <cc:Work
         rdf:about="">
        <dc:format>image/svg+xml</dc:format>
        <dc:type
           rdf:resource="http://purl.org/dc/dcmitype/StillImage" />
        <dc:title />
      </cc:Work>
    </rdf:RDF>
  </metadata>
  <g
     inkscape:label="Layer 1"
     inkscape:groupmode="layer"
     id="layer1"
     transform="translate(249.80447,-91.409467)">
    <rect
       y="91.40947"
       x="-249.80447"
       height="52.916668"
       width="52.916668"
       id="rect5238-5"
       style="fill:#222222;fill-opacity:1;fill-rule:nonzero;stroke:none;stroke-width:0.5;stroke-linecap:butt;stroke-linejoin:round;stroke-miterlimit:4;stroke-dasharray:none;stroke-dashoffset:0;stroke-opacity:0.909449;paint-order:normal"
       rx="3.96875"
       ry="3.96875" />
    <rect
       style="fill:#ff9800;fill-opacity:1;fill-rule:nonzero;stroke:none;stroke-width:0.5;stroke-linecap:butt;stroke-linejoin:round;stroke-miterlimit:4;stroke-dasharray:none;stroke-dashoffset:0;stroke-opacity:0.909449;paint-order:normal"
       id="rect5240-3"
       width="47.625"
       height="47.625"
       x="-247.15863"
       y="94.055298"
       rx="2.6458333"
       ry="2.6458333" />
    <path
       style="fill:#222222;fill-opacity:1;stroke-width:1"
       d="m -229.17803,97.639024 c 2.11378,0.0026 3.24665,0.580675 4.50392,2.297699 2.6067,3.559897 3.32733,4.047167 5.98514,4.047167 2.26224,0 3.99998,-0.49451 9.06384,-2.58042 0.58287,-0.2401 1.48507,4.67556 1.97687,10.76991 l 0.28937,3.58291 -1.48821,0.6526 c -4.0633,1.78115 -7.60319,2.44839 -9.65529,1.81984 -1.19949,-0.36739 -2.14046,-1.31831 -3.81138,-3.85082 -1.43186,-2.17018 -3.21425,-2.84154 -6.19404,-2.33289 -1.92125,0.32796 -5.58557,1.55388 -5.64409,1.88822 -0.0216,0.12334 0.86361,4.24625 1.9668,9.162 l 1.82571,8.13592 a 18.894157,22.503456 47.500875 0 1 -2.48298,-0.24593 c -0.24452,-1.66596 -1.18217,-6.08917 -3.14714,-14.92184 -1.96746,-8.84386 -3.42183,-15.8761 -3.34063,-16.153459 0.23212,-0.792944 0.8329,-1.00744 1.41694,-0.505845 l 0.49469,0.424671 1.45571,-0.576625 c 2.57246,-1.018787 5.08127,-1.615273 6.78477,-1.613108 z m -7.64193,3.885216 c -0.0218,2.4e-4 -0.0402,0.006 -0.0545,0.0192 -0.0534,0.0474 0.43758,2.47762 1.09131,5.40035 0.79517,3.55521 1.25478,5.19574 1.38799,4.95728 0.10953,-0.19604 0.29555,-1.15925 0.41346,-2.14055 0.26385,-2.19489 -0.0215,-4.12635 -0.85917,-5.81503 -0.53424,-1.07697 -1.65203,-2.42507 -1.97905,-2.42126 z"
       id="path4773-5"
       inkscape:connector-curvature="0" />
    <path
       inkscape:connector-curvature="0"
       id="path5244-6"
       d="m -248.34926,128.45114 v 8.33437 c 0,3.07816 2.47808,5.55625 5.55625,5.55625 h 38.89375 c 3.07816,0 5.55625,-2.47809 5.55625,-5.55625 v -8.33437 z"
       style="fill:#222222;fill-opacity:1;fill-rule:nonzero;stroke:none;stroke-width:0.5;stroke-linecap:butt;stroke-linejoin:round;stroke-miterlimit:4;stroke-dasharray:none;stroke-dashoffset:0;stroke-opacity:0.909449;paint-order:normal" />
    <g
       aria-label="NATIONALIST"
       transform="scale(0.96136255,1.0401903)"
       id="text58"
       style="font-weight:bold;font-size:7.03901px;line-height:1.25;font-family:Montserrat;-inkscape-font-specification:'Montserrat Bold';stroke-width:0.502785">
      <path
         d="m -252.47542,127.96355 v 4.9273 h -0.93619 l -2.45662,-2.99158 v 2.99158 h -1.12624 v -4.9273 h 0.94323 l 2.44958,2.99158 v -2.99158 z"
         style="fill:#eeeeee;fill-opacity:1;stroke-width:0.502785"
         id="path1395" />
      <path
         d="m -248.06197,131.835 h -2.28768 l -0.43642,1.05585 h -1.16848 l 2.19618,-4.9273 h 1.12624 l 2.20321,4.9273 h -1.19663 z m -0.35899,-0.8658 -0.78133,-1.88645 -0.78133,1.88645 z"
         style="fill:#eeeeee;fill-opacity:1;stroke-width:0.502785"
         id="path1397" />
      <path
         d="m -245.1408,128.8927 h -1.57674 v -0.92915 h 4.29379 v 0.92915 h -1.57674 v 3.99815 h -1.14031 z"
         style="fill:#eeeeee;fill-opacity:1;stroke-width:0.502785"
         id="path1399" />
      <path
         d="m -241.81137,127.96355 h 1.14032 v 4.9273 h -1.14032 z"
         style="fill:#eeeeee;fill-opacity:1;stroke-width:0.502785"
         id="path1401" />
      <path
         d="m -237.11635,132.97532 q -0.76725,0 -1.38669,-0.33083 -0.61239,-0.33083 -0.96434,-0.90803 -0.34491,-0.58424 -0.34491,-1.30926 0,-0.72502 0.34491,-1.30222 0.35195,-0.58423 0.96434,-0.91507 0.61944,-0.33083 1.38669,-0.33083 0.76725,0 1.37964,0.33083 0.6124,0.33084 0.96435,0.91507 0.35195,0.5772 0.35195,1.30222 0,0.72502 -0.35195,1.30926 -0.35195,0.5772 -0.96435,0.90803 -0.61239,0.33083 -1.37964,0.33083 z m 0,-0.97138 q 0.43642,0 0.78837,-0.19709 0.35195,-0.20413 0.54904,-0.56312 0.20413,-0.35899 0.20413,-0.81653 0,-0.45754 -0.20413,-0.81652 -0.19709,-0.35899 -0.54904,-0.55609 -0.35195,-0.20413 -0.78837,-0.20413 -0.43642,0 -0.78837,0.20413 -0.35195,0.1971 -0.55608,0.55609 -0.1971,0.35898 -0.1971,0.81652 0,0.45754 0.1971,0.81653 0.20413,0.35899 0.55608,0.56312 0.35195,0.19709 0.78837,0.19709 z"
         style="fill:#eeeeee;fill-opacity:1;stroke-width:0.502785"
         id="path1403" />
      <path
         d="m -229.04261,127.96355 v 4.9273 h -0.93619 l -2.45661,-2.99158 v 2.99158 h -1.12624 v -4.9273 h 0.94322 l 2.44958,2.99158 v -2.99158 z"
         style="fill:#eeeeee;fill-opacity:1;stroke-width:0.502785"
         id="path1405" />
      <path
         d="m -224.62916,131.835 h -2.28768 l -0.43642,1.05585 h -1.16847 l 2.19617,-4.9273 h 1.12624 l 2.20321,4.9273 h -1.19663 z m -0.35899,-0.8658 -0.78133,-1.88645 -0.78133,1.88645 z"
         style="fill:#eeeeee;fill-opacity:1;stroke-width:0.502785"
         id="path1407" />
      <path
         d="m -222.48227,127.96355 h 1.14032 v 3.99815 h 2.47069 v 0.92915 h -3.61101 z"
         style="fill:#eeeeee;fill-opacity:1;stroke-width:0.502785"
         id="path1409" />
      <path
         d="m -218.23072,127.96355 h 1.14032 v 4.9273 h -1.14032 z"
         style="fill:#eeeeee;fill-opacity:1;stroke-width:0.502785"
         id="path1411" />
      <path
         d="m -214.30296,132.97532 q -0.58424,0 -1.13328,-0.15486 -0.542,-0.16189 -0.87284,-0.4153 l 0.38715,-0.85876 q 0.31675,0.23229 0.75317,0.37307 0.43642,0.14078 0.87284,0.14078 0.48569,0 0.71798,-0.14078 0.23229,-0.14782 0.23229,-0.38715 0,-0.17597 -0.14078,-0.28859 -0.13374,-0.11967 -0.35195,-0.19006 -0.21117,-0.0704 -0.5772,-0.15486 -0.56312,-0.13374 -0.92211,-0.26748 -0.35899,-0.13374 -0.61944,-0.42938 -0.2534,-0.29564 -0.2534,-0.78837 0,-0.42938 0.23229,-0.77429 0.23228,-0.35195 0.69686,-0.55608 0.47161,-0.20413 1.14736,-0.20413 0.47161,0 0.92211,0.11262 0.45049,0.11263 0.78837,0.3238 l -0.35195,0.8658 q -0.68279,-0.38715 -1.36557,-0.38715 -0.47865,0 -0.71094,0.15486 -0.22525,0.15486 -0.22525,0.40826 0,0.25341 0.26044,0.38011 0.26749,0.11966 0.80949,0.23932 0.56312,0.13374 0.92211,0.26749 0.35899,0.13374 0.61239,0.42234 0.26045,0.2886 0.26045,0.78133 0,0.42234 -0.23933,0.77429 -0.23229,0.34491 -0.7039,0.54904 -0.47161,0.20413 -1.14736,0.20413 z"
         style="fill:#eeeeee;fill-opacity:1;stroke-width:0.502785"
         id="path1413" />
      <path
         d="m -210.48079,128.8927 h -1.57674 v -0.92915 h 4.2938 v 0.92915 h -1.57674 v 3.99815 h -1.14032 z"
         style="fill:#eeeeee;fill-opacity:1;stroke-width:0.502785"
         id="path1415" />
    </g>
  </g>
</svg>
