<?xml version="1.0" encoding="UTF-8" standalone="no"?>
<svg
   xmlns:dc="http://purl.org/dc/elements/1.1/"
   xmlns:cc="http://creativecommons.org/ns#"
   xmlns:rdf="http://www.w3.org/1999/02/22-rdf-syntax-ns#"
   xmlns:svg="http://www.w3.org/2000/svg"
   xmlns="http://www.w3.org/2000/svg"
   xmlns:sodipodi="http://sodipodi.sourceforge.net/DTD/sodipodi-0.dtd"
   xmlns:inkscape="http://www.inkscape.org/namespaces/inkscape"
   width="200"
   height="200"
   viewBox="0 0 52.916668 52.916666"
   version="1.1"
   id="svg8"
   inkscape:version="1.0.2-2 (e86c870879, 2021-01-15)"
   sodipodi:docname="socialist.svg">
  <defs
     id="defs2">
    <rect
       x="-255.23004"
       y="125.83378"
       width="102.52459"
       height="46.959256"
       id="rect873" />
    <inkscape:path-effect
       effect="envelope"
       id="path-effect4658"
       is_visible="true"
       yy="true"
       xx="true"
       bendpath1="m -199.08406,108.42369 h 7.0057"
       bendpath2="m -192.07836,108.42369 v 6.75242"
       bendpath3="m -199.08406,115.17611 h 7.0057"
       bendpath4="m -199.08406,108.42369 v 6.75242" />
    <inkscape:path-effect
       effect="bend_path"
       id="path-effect4656"
       is_visible="true"
       bendpath="m -192.00142,114.60623 c 2.12577,-0.53066 4.48261,0.85111 7.0057,0"
       prop_scale="1"
       scale_y_rel="false"
       vertical="false"
       bendpath-nodetypes="cc" />
    <inkscape:path-effect
       effect="bounding_box"
       id="path-effect4654"
       is_visible="true"
       linkedpath=""
       visualbounds="false" />
  </defs>
  <sodipodi:namedview
     id="base"
     pagecolor="#ffffff"
     bordercolor="#666666"
     borderopacity="1.0"
     inkscape:pageopacity="0.0"
     inkscape:pageshadow="2"
     inkscape:zoom="2.8284271"
     inkscape:cx="82.067055"
     inkscape:cy="109.62894"
     inkscape:document-units="mm"
     inkscape:current-layer="layer1"
     showgrid="false"
     fit-margin-top="0"
     fit-margin-left="0"
     fit-margin-right="0"
     fit-margin-bottom="0"
     inkscape:window-width="1280"
     inkscape:window-height="961"
     inkscape:window-x="-8"
     inkscape:window-y="-8"
     inkscape:window-maximized="1"
     showguides="false"
     inkscape:object-nodes="true"
     units="px"
     inkscape:snap-page="true"
     inkscape:document-rotation="0" />
  <metadata
     id="metadata5">
    <rdf:RDF>
      <cc:Work
         rdf:about="">
        <dc:format>image/svg+xml</dc:format>
        <dc:type
           rdf:resource="http://purl.org/dc/dcmitype/StillImage" />
        <dc:title />
      </cc:Work>
    </rdf:RDF>
  </metadata>
  <g
     inkscape:label="Layer 1"
     inkscape:groupmode="layer"
     id="layer1"
     transform="translate(249.80447,-91.409467)">
    <rect
       y="91.40947"
       x="-249.80447"
       height="52.916668"
       width="52.916668"
       id="rect5238-5"
       style="fill:#222222;fill-opacity:1;fill-rule:nonzero;stroke:none;stroke-width:0.5;stroke-linecap:butt;stroke-linejoin:round;stroke-miterlimit:4;stroke-dasharray:none;stroke-dashoffset:0;stroke-opacity:0.909449;paint-order:normal"
       rx="3.96875"
       ry="3.96875" />
    <rect
       style="fill:#cd0000;fill-opacity:1;fill-rule:nonzero;stroke:none;stroke-width:0.5;stroke-linecap:butt;stroke-linejoin:round;stroke-miterlimit:4;stroke-dasharray:none;stroke-dashoffset:0;stroke-opacity:0.909449;paint-order:normal"
       id="rect5240-3"
       width="47.625"
       height="47.625"
       x="-247.15863"
       y="94.055298"
       rx="2.6458333"
       ry="2.6458333" />
    <path
       inkscape:connector-curvature="0"
       id="path5244-6"
       d="m -248.34926,128.45114 v 8.33437 c 0,3.07816 2.47808,5.55625 5.55625,5.55625 h 38.89375 c 3.07816,0 5.55625,-2.47809 5.55625,-5.55625 v -8.33437 z"
       style="fill:#222222;fill-opacity:1;fill-rule:nonzero;stroke:none;stroke-width:0.5;stroke-linecap:butt;stroke-linejoin:round;stroke-miterlimit:4;stroke-dasharray:none;stroke-dashoffset:0;stroke-opacity:0.909449;paint-order:normal" />
    <g
       id="g19710"
       transform="matrix(0.33708523,0,0,0.33708523,1936.1308,-465.90183)"
       style="fill:#222222;fill-opacity:1;stroke-width:2.96662">
      <path
         sodipodi:nodetypes="cssssscsssssc"
         inkscape:connector-curvature="0"
         id="path19657-0"
         d="m -6436.4715,1742.927 c 6.3877,7.2306 14.9631,12.5027 24.2986,14.9388 6.0562,1.5804 12.4727,1.9787 18.5965,0.6845 6.1237,-1.2941 11.9377,-4.3356 16.1581,-8.9577 4.5749,-5.0104 7.113,-11.7014 7.641,-18.4656 0.528,-6.7643 -0.8715,-13.5935 -3.4281,-19.8782 -4.5603,-11.2102 -12.8837,-20.8511 -23.3087,-26.9982 8.5128,0.7096 16.806,3.8828 23.6181,9.037 6.8122,5.1542 12.1207,12.2722 15.118,20.2714 2.9974,7.9992 3.6736,16.8529 1.9259,25.2145 -1.7476,8.3616 -5.9134,16.2033 -11.8638,22.3323 -8.683,8.9438 -21.18,14.0555 -33.6419,13.7608 -12.4619,-0.2947 -24.7034,-5.9915 -32.9539,-15.3357 l -14.5565,14.5567 -9.3819,-9.3819 z"
         style="fill:#222222;fill-opacity:1;stroke:none;stroke-width:0.156983;stroke-linecap:butt;stroke-linejoin:miter;stroke-miterlimit:4;stroke-dasharray:none;stroke-opacity:1" />
      <path
         sodipodi:nodetypes="ccccccccscc"
         inkscape:connector-curvature="0"
         id="path19683-5"
         d="m -6392.6997,1702.5038 -10.9594,10.9594 49.2626,49.2625 -11.1309,11.241 -49.3176,-49.3176 -8.6544,8.6544 -12.7908,-12.7907 21.5727,-21.5727 c 2.6809,0.2758 5.4027,0.1505 8.0469,-0.3706 2.5814,-0.5087 5.0883,-1.3943 7.4165,-2.62 z"
         style="fill:#222222;fill-opacity:1;stroke:none;stroke-width:0.784915px;stroke-linecap:butt;stroke-linejoin:miter;stroke-opacity:1" />
    </g>
    <g
       aria-label="SOCIALIST"
       transform="scale(0.97890266,1.021552)"
       id="text5289"
       style="font-weight:bold;font-size:8.81166px;line-height:1.25;font-family:Montserrat;-inkscape-font-specification:'Montserrat Bold';stroke-width:0.629403">
      <path
         d="m -249.60859,135.58459 q -0.73137,0 -1.41868,-0.19386 -0.67849,-0.20266 -1.09264,-0.51988 l 0.48464,-1.07503 q 0.39652,0.29079 0.94285,0.46702 0.54632,0.17624 1.09264,0.17624 0.60801,0 0.89879,-0.17624 0.29079,-0.18504 0.29079,-0.48464 0,-0.22029 -0.17624,-0.36128 -0.16742,-0.1498 -0.44058,-0.23791 -0.26435,-0.0881 -0.72256,-0.19386 -0.70493,-0.16742 -1.15432,-0.33484 -0.4494,-0.16742 -0.77543,-0.53751 -0.31722,-0.37009 -0.31722,-0.98691 0,-0.53751 0.29079,-0.96928 0.29078,-0.44058 0.87235,-0.69612 0.59038,-0.25554 1.4363,-0.25554 0.59038,0 1.15433,0.14099 0.56394,0.14098 0.9869,0.40533 l -0.44058,1.08384 q -0.85473,-0.48464 -1.70946,-0.48464 -0.59919,0 -0.88998,0.19385 -0.28197,0.19386 -0.28197,0.51108 0,0.31722 0.32603,0.47583 0.33484,0.1498 1.01334,0.29959 0.70493,0.16743 1.15433,0.33485 0.44939,0.16742 0.76661,0.5287 0.32603,0.36127 0.32603,0.97809 0,0.5287 -0.29959,0.96928 -0.29079,0.43177 -0.88117,0.68731 -0.59038,0.25554 -1.4363,0.25554 z"
         style="fill:#eeeeee;fill-opacity:1;stroke-width:0.629403"
         id="path5291" />
      <path
         d="m -243.02629,135.58459 q -0.96047,0 -1.7359,-0.41415 -0.76661,-0.41414 -1.2072,-1.1367 -0.43177,-0.73137 -0.43177,-1.63897 0,-0.9076 0.43177,-1.63016 0.44059,-0.73136 1.2072,-1.14551 0.77543,-0.41415 1.7359,-0.41415 0.96047,0 1.72708,0.41415 0.76662,0.41415 1.2072,1.14551 0.44058,0.72256 0.44058,1.63016 0,0.9076 -0.44058,1.63897 -0.44058,0.72256 -1.2072,1.1367 -0.76661,0.41415 -1.72708,0.41415 z m 0,-1.21601 q 0.54632,0 0.9869,-0.24672 0.44059,-0.25554 0.68731,-0.70494 0.25554,-0.44939 0.25554,-1.02215 0,-0.57276 -0.25554,-1.02215 -0.24672,-0.4494 -0.68731,-0.69612 -0.44058,-0.25554 -0.9869,-0.25554 -0.54632,0 -0.98691,0.25554 -0.44058,0.24672 -0.69612,0.69612 -0.24672,0.44939 -0.24672,1.02215 0,0.57276 0.24672,1.02215 0.25554,0.4494 0.69612,0.70494 0.44059,0.24672 0.98691,0.24672 z"
         style="fill:#eeeeee;fill-opacity:1;stroke-width:0.629403"
         id="path5293" />
      <path
         d="m -235.6245,135.58459 q -0.94285,0 -1.70946,-0.40534 -0.7578,-0.41414 -1.19839,-1.1367 -0.43177,-0.73137 -0.43177,-1.64778 0,-0.91641 0.43177,-1.63897 0.44059,-0.73137 1.19839,-1.1367 0.76661,-0.41415 1.71827,-0.41415 0.80186,0 1.44512,0.28197 0.65206,0.28198 1.09264,0.81068 l -0.91641,0.84591 q -0.62563,-0.72255 -1.55085,-0.72255 -0.57276,0 -1.02216,0.25554 -0.44939,0.24672 -0.70493,0.69612 -0.24672,0.44939 -0.24672,1.02215 0,0.57276 0.24672,1.02215 0.25554,0.4494 0.70493,0.70494 0.4494,0.24672 1.02216,0.24672 0.92522,0 1.55085,-0.73137 l 0.91641,0.84592 q -0.44058,0.53752 -1.09264,0.81949 -0.65207,0.28197 -1.45393,0.28197 z"
         style="fill:#eeeeee;fill-opacity:1;stroke-width:0.629403"
         id="path5295" />
      <path
         d="m -232.11746,129.31069 h 1.42749 v 6.16816 h -1.42749 z"
         style="fill:#eeeeee;fill-opacity:1;stroke-width:0.629403"
         id="path5297" />
      <path
         d="m -225.16507,134.1571 h -2.86379 l -0.54632,1.32175 h -1.46274 l 2.74924,-6.16816 h 1.40987 l 2.75805,6.16816 h -1.49798 z m -0.44939,-1.08383 -0.9781,-2.36153 -0.97809,2.36153 z"
         style="fill:#eeeeee;fill-opacity:1;stroke-width:0.629403"
         id="path5299" />
      <path
         d="m -222.47752,129.31069 h 1.42749 v 5.00502 h 3.09289 v 1.16314 h -4.52038 z"
         style="fill:#eeeeee;fill-opacity:1;stroke-width:0.629403"
         id="path5301" />
      <path
         d="m -217.15529,129.31069 h 1.42749 v 6.16816 h -1.42749 z"
         style="fill:#eeeeee;fill-opacity:1;stroke-width:0.629403"
         id="path5303" />
      <path
         d="m -212.2384,135.58459 q -0.73136,0 -1.41867,-0.19386 -0.6785,-0.20266 -1.09265,-0.51988 l 0.48464,-1.07503 q 0.39653,0.29079 0.94285,0.46702 0.54632,0.17624 1.09265,0.17624 0.608,0 0.89879,-0.17624 0.29078,-0.18504 0.29078,-0.48464 0,-0.22029 -0.17623,-0.36128 -0.16742,-0.1498 -0.44059,-0.23791 -0.26435,-0.0881 -0.72255,-0.19386 -0.70493,-0.16742 -1.15433,-0.33484 -0.44939,-0.16742 -0.77543,-0.53751 -0.31721,-0.37009 -0.31721,-0.98691 0,-0.53751 0.29078,-0.96928 0.29078,-0.44058 0.87235,-0.69612 0.59039,-0.25554 1.4363,-0.25554 0.59039,0 1.15433,0.14099 0.56395,0.14098 0.98691,0.40533 l -0.44059,1.08384 q -0.85473,-0.48464 -1.70946,-0.48464 -0.59919,0 -0.88997,0.19385 -0.28198,0.19386 -0.28198,0.51108 0,0.31722 0.32603,0.47583 0.33485,0.1498 1.01334,0.29959 0.70494,0.16743 1.15433,0.33485 0.4494,0.16742 0.76662,0.5287 0.32603,0.36127 0.32603,0.97809 0,0.5287 -0.2996,0.96928 -0.29078,0.43177 -0.88116,0.68731 -0.59039,0.25554 -1.43631,0.25554 z"
         style="fill:#eeeeee;fill-opacity:1;stroke-width:0.629403"
         id="path5305" />
      <path
         d="m -207.45368,130.47383 h -1.97381 v -1.16314 h 5.37511 v 1.16314 h -1.97381 v 5.00502 h -1.42749 z"
         style="fill:#eeeeee;fill-opacity:1;stroke-width:0.629403"
         id="path5307" />
    </g>
  </g>
</svg>
