<?xml version="1.0" encoding="UTF-8" standalone="no"?>
<svg
   xmlns:dc="http://purl.org/dc/elements/1.1/"
   xmlns:cc="http://creativecommons.org/ns#"
   xmlns:rdf="http://www.w3.org/1999/02/22-rdf-syntax-ns#"
   xmlns:svg="http://www.w3.org/2000/svg"
   xmlns="http://www.w3.org/2000/svg"
   xmlns:sodipodi="http://sodipodi.sourceforge.net/DTD/sodipodi-0.dtd"
   xmlns:inkscape="http://www.inkscape.org/namespaces/inkscape"
   width="200"
   height="200"
   viewBox="0 0 52.916668 52.916666"
   version="1.1"
   id="svg8"
   inkscape:version="1.0.2-2 (e86c870879, 2021-01-15)"
   sodipodi:docname="capitalist.svg">
  <defs
     id="defs2">
    <rect
       x="-268.4576"
       y="130.43551"
       width="120.12083"
       height="27.384375"
       id="rect867" />
    <inkscape:path-effect
       effect="envelope"
       id="path-effect4658"
       is_visible="true"
       yy="true"
       xx="true"
       bendpath1="m -199.08406,108.42369 h 7.0057"
       bendpath2="m -192.07836,108.42369 v 6.75242"
       bendpath3="m -199.08406,115.17611 h 7.0057"
       bendpath4="m -199.08406,108.42369 v 6.75242" />
    <inkscape:path-effect
       effect="bend_path"
       id="path-effect4656"
       is_visible="true"
       bendpath="m -192.00142,114.60623 c 2.12577,-0.53066 4.48261,0.85111 7.0057,0"
       prop_scale="1"
       scale_y_rel="false"
       vertical="false"
       bendpath-nodetypes="cc" />
    <inkscape:path-effect
       effect="bounding_box"
       id="path-effect4654"
       is_visible="true"
       linkedpath=""
       visualbounds="false" />
  </defs>
  <sodipodi:namedview
     id="base"
     pagecolor="#ffffff"
     bordercolor="#666666"
     borderopacity="1.0"
     inkscape:pageopacity="0.0"
     inkscape:pageshadow="2"
     inkscape:zoom="2.2960843"
     inkscape:cx="117.23083"
     inkscape:cy="134.75919"
     inkscape:document-units="mm"
     inkscape:current-layer="text5972"
     showgrid="false"
     fit-margin-top="0"
     fit-margin-left="0"
     fit-margin-right="0"
     fit-margin-bottom="0"
     inkscape:window-width="1280"
     inkscape:window-height="961"
     inkscape:window-x="-8"
     inkscape:window-y="-8"
     inkscape:window-maximized="1"
     showguides="false"
     inkscape:object-nodes="true"
     units="px"
     inkscape:snap-page="true"
     inkscape:document-rotation="0" />
  <metadata
     id="metadata5">
    <rdf:RDF>
      <cc:Work
         rdf:about="">
        <dc:format>image/svg+xml</dc:format>
        <dc:type
           rdf:resource="http://purl.org/dc/dcmitype/StillImage" />
        <dc:title />
      </cc:Work>
    </rdf:RDF>
  </metadata>
  <g
     inkscape:label="Layer 1"
     inkscape:groupmode="layer"
     id="layer1"
     transform="translate(249.80447,-91.409467)">
    <rect
       y="91.40947"
       x="-249.80447"
       height="52.916668"
       width="52.916668"
       id="rect5238-5"
       style="fill:#222222;fill-opacity:1;fill-rule:nonzero;stroke:none;stroke-width:0.5;stroke-linecap:butt;stroke-linejoin:round;stroke-miterlimit:4;stroke-dasharray:none;stroke-dashoffset:0;stroke-opacity:0.909449;paint-order:normal"
       rx="3.96875"
       ry="3.96875" />
    <rect
       style="fill:#ffe000;fill-opacity:1;fill-rule:nonzero;stroke:none;stroke-width:0.5;stroke-linecap:butt;stroke-linejoin:round;stroke-miterlimit:4;stroke-dasharray:none;stroke-dashoffset:0;stroke-opacity:0.909449;paint-order:normal"
       id="rect5240-3"
       width="47.625"
       height="47.625"
       x="-247.15863"
       y="94.055298"
       rx="2.6458333"
       ry="2.6458333" />
    <path
       inkscape:connector-curvature="0"
       id="path5244-6"
       d="m -248.34926,128.45114 v 8.33437 c 0,3.07816 2.47808,5.55625 5.55625,5.55625 h 38.89375 c 3.07816,0 5.55625,-2.47809 5.55625,-5.55625 v -8.33437 z"
       style="fill:#222222;fill-opacity:1;fill-rule:nonzero;stroke:none;stroke-width:0.5;stroke-linecap:butt;stroke-linejoin:round;stroke-miterlimit:4;stroke-dasharray:none;stroke-dashoffset:0;stroke-opacity:0.909449;paint-order:normal" />
    <g
       aria-label="CAPITALIST"
       transform="scale(0.97772498,1.0227825)"
       id="text5921"
       style="font-weight:bold;font-size:7.9789px;line-height:1.25;font-family:Montserrat;-inkscape-font-specification:'Montserrat Bold';fill:#eeeeee;fill-opacity:1;stroke-width:0.56992">
      <path
         d="m -249.49531,135.27167 q -0.85374,0 -1.54791,-0.36703 -0.68618,-0.37501 -1.08513,-1.02928 -0.39096,-0.66225 -0.39096,-1.49206 0,-0.8298 0.39096,-1.48407 0.39895,-0.66225 1.08513,-1.02928 0.69417,-0.37501 1.55589,-0.37501 0.72608,0 1.30854,0.25533 0.59044,0.25532 0.98938,0.73406 l -0.8298,0.76597 q -0.56651,-0.65427 -1.40429,-0.65427 -0.51863,0 -0.92555,0.23139 -0.40693,0.22341 -0.63831,0.63033 -0.22341,0.40693 -0.22341,0.92555 0,0.51863 0.22341,0.92556 0.23138,0.40692 0.63831,0.63831 0.40692,0.22341 0.92555,0.22341 0.83778,0 1.40429,-0.66225 l 0.8298,0.76597 q -0.39894,0.48672 -0.98938,0.74204 -0.59044,0.25533 -1.31652,0.25533 z"
         style="fill:#eeeeee;fill-opacity:1;stroke-width:0.56992"
         id="path5923" />
      <path
         d="m -242.75316,133.97908 h -2.59314 l -0.49469,1.19684 h -1.3245 l 2.48942,-5.58523 h 1.27662 l 2.4974,5.58523 h -1.35641 z m -0.40692,-0.9814 -0.88566,-2.13835 -0.88566,2.13835 z"
         style="fill:#eeeeee;fill-opacity:1;stroke-width:0.56992"
         id="path5925" />
      <path
         d="m -237.90199,129.59069 q 0.74203,0 1.2846,0.24734 0.55054,0.24735 0.84576,0.70215 0.29522,0.4548 0.29522,1.07715 0,0.61437 -0.29522,1.07715 -0.29522,0.4548 -0.84576,0.70214 -0.54257,0.23937 -1.2846,0.23937 h -1.12503 v 1.53993 h -1.29258 v -5.58523 z m -0.0718,2.99209 q 0.58246,0 0.88565,-0.24735 0.3032,-0.25532 0.3032,-0.7181 0,-0.47076 -0.3032,-0.7181 -0.30319,-0.25533 -0.88565,-0.25533 h -1.05322 v 1.93888 z"
         style="fill:#eeeeee;fill-opacity:1;stroke-width:0.56992"
         id="path5927" />
      <path
         d="m -234.55885,129.59069 h 1.29258 v 5.58523 h -1.29258 z"
         style="fill:#eeeeee;fill-opacity:1;stroke-width:0.56992"
         id="path5929" />
      <path
         d="m -230.78484,130.6439 h -1.78727 v -1.05321 h 4.86713 v 1.05321 h -1.78727 v 4.53202 h -1.29259 z"
         style="fill:#eeeeee;fill-opacity:1;stroke-width:0.56992"
         id="path5931" />
      <path
         d="m -223.61183,133.97908 h -2.59315 l -0.49469,1.19684 h -1.3245 l 2.48942,-5.58523 h 1.27662 l 2.4974,5.58523 h -1.35641 z m -0.40693,-0.9814 -0.88566,-2.13835 -0.88565,2.13835 z"
         style="fill:#eeeeee;fill-opacity:1;stroke-width:0.56992"
         id="path5933" />
      <path
         d="m -221.17828,129.59069 h 1.29258 v 4.53201 h 2.8006 v 1.05322 h -4.09318 z"
         style="fill:#eeeeee;fill-opacity:1;stroke-width:0.56992"
         id="path5935" />
      <path
         d="m -216.35904,129.59069 h 1.29258 v 5.58523 h -1.29258 z"
         style="fill:#eeeeee;fill-opacity:1;stroke-width:0.56992"
         id="path5937" />
      <path
         d="m -211.90682,135.27167 q -0.66225,0 -1.2846,-0.17554 -0.61438,-0.18352 -0.98938,-0.47076 l 0.43884,-0.97342 q 0.35905,0.2633 0.85374,0.42288 0.49469,0.15958 0.98938,0.15958 0.55055,0 0.81385,-0.15958 0.2633,-0.16756 0.2633,-0.43884 0,-0.19947 -0.15957,-0.32713 -0.1516,-0.13565 -0.39895,-0.21543 -0.23937,-0.0798 -0.65427,-0.17554 -0.63831,-0.1516 -1.04524,-0.3032 -0.40692,-0.1516 -0.70214,-0.48671 -0.28724,-0.33512 -0.28724,-0.89364 0,-0.48671 0.2633,-0.87768 0.26331,-0.39894 0.78992,-0.63033 0.53458,-0.23139 1.30056,-0.23139 0.53458,0 1.04523,0.12766 0.51065,0.12767 0.89364,0.36703 l -0.39895,0.98141 q -0.77395,-0.43884 -1.5479,-0.43884 -0.54257,0 -0.80587,0.17553 -0.25533,0.17554 -0.25533,0.46278 0,0.28724 0.29522,0.43086 0.3032,0.13564 0.91758,0.27128 0.63831,0.1516 1.04523,0.3032 0.40693,0.1516 0.69417,0.47874 0.29522,0.32713 0.29522,0.88565 0,0.47874 -0.27129,0.87768 -0.2633,0.39097 -0.79789,0.62236 -0.53458,0.23139 -1.30056,0.23139 z"
         style="fill:#eeeeee;fill-opacity:1;stroke-width:0.56992"
         id="path5939" />
      <path
         d="m -207.57429,130.6439 h -1.78727 v -1.05321 h 4.86713 v 1.05321 h -1.78728 v 4.53202 h -1.29258 z"
         style="fill:#eeeeee;fill-opacity:1;stroke-width:0.56992"
         id="path5941" />
    </g>
    <text
       xml:space="preserve"
       style="font-weight:bold;font-size:3.70417px;line-height:1.25;font-family:Montserrat;-inkscape-font-specification:'Montserrat Bold';stroke-width:0.264583"
       x="-226.64276"
       y="101.43468"
       id="text5946"><tspan
         sodipodi:role="line"
         id="tspan5944"
         x="-226.64276"
         y="101.43468"
         style="stroke-width:0.264583" /></text>
    <rect
       style="fill:#222222;fill-opacity:1;stroke:#222222;stroke-width:0.252956;stroke-opacity:1"
       id="rect5948"
       width="47.858482"
       height="1.6252983"
       x="-247.16014"
       y="96.588905" />
    <text
       xml:space="preserve"
       style="font-weight:bold;font-size:3.70417px;line-height:1.25;font-family:Montserrat;-inkscape-font-specification:'Montserrat Bold';stroke-width:0.264583"
       x="-236.43752"
       y="115.60827"
       id="text5968"><tspan
         sodipodi:role="line"
         id="tspan5966"
         x="-236.43752"
         y="115.60827"
         style="stroke:#222222;stroke-width:0.264583;stroke-opacity:1" /></text>
    <g
       aria-label="$"
       transform="scale(1.0402363,0.96131999)"
       id="text5972"
       style="font-weight:bold;font-size:34.5856px;line-height:1.25;font-family:Montserrat;-inkscape-font-specification:'Montserrat Bold';fill:#222222;fill-opacity:1;stroke-width:2.47039">
      <path
         d="m -208.06057,125.18482 q 0,2.83602 -2.07514,4.87657 -2.07514,2.00597 -5.98331,2.49017 v 3.87358 h -3.45856 v -3.76983 q -2.55933,-0.13834 -4.87657,-0.89922 -2.31723,-0.76089 -3.73524,-1.86762 l 1.9022,-4.21945 q 1.31426,0.9684 3.07812,1.62553 1.76387,0.65712 3.63149,0.83005 v -5.7758 q -2.45558,-0.58795 -4.15027,-1.31425 -1.6947,-0.7263 -2.83602,-2.10972 -1.14133,-1.41801 -1.14133,-3.73525 0,-2.8706 2.07514,-4.91115 2.10972,-2.07514 6.05248,-2.52475 v -3.839 h 3.45856 v 3.76983 q 4.25403,0.34585 7.02088,2.10972 l -1.72928,4.25403 q -2.59392,-1.48718 -5.2916,-1.79845 v 5.87955 q 2.42099,0.55337 4.0811,1.27967 1.6947,0.69171 2.83602,2.10972 1.14133,1.38342 1.14133,3.66607 z m -14.07634,-10.27192 q 0,0.86464 0.65712,1.41801 0.65713,0.55337 1.90221,0.93381 v -4.91115 q -1.31425,0.31127 -1.93679,1.00298 -0.62254,0.65712 -0.62254,1.55635 z m 6.01789,13.07336 q 1.24508,-0.27669 1.86762,-0.89923 0.62254,-0.62254 0.62254,-1.48718 0,-0.86464 -0.65712,-1.41801 -0.62254,-0.55337 -1.83304,-0.9684 z"
         style="fill:#222222;fill-opacity:1;stroke-width:2.47039"
         id="path40" />
    </g>
  </g>
</svg>
