<?xml version="1.0" encoding="UTF-8" standalone="no"?>
<svg
   xmlns:dc="http://purl.org/dc/elements/1.1/"
   xmlns:cc="http://creativecommons.org/ns#"
   xmlns:rdf="http://www.w3.org/1999/02/22-rdf-syntax-ns#"
   xmlns:svg="http://www.w3.org/2000/svg"
   xmlns="http://www.w3.org/2000/svg"
   xmlns:sodipodi="http://sodipodi.sourceforge.net/DTD/sodipodi-0.dtd"
   xmlns:inkscape="http://www.inkscape.org/namespaces/inkscape"
   width="200"
   height="200"
   viewBox="0 0 52.916668 52.916666"
   version="1.1"
   id="svg8"
   inkscape:version="1.0.2-2 (e86c870879, 2021-01-15)"
   sodipodi:docname="conventionalist.svg">
  <defs
     id="defs2">
    <rect
       x="-297.69405"
       y="129.24488"
       width="41.936458"
       height="10.847917"
       id="rect860" />
    <inkscape:path-effect
       effect="envelope"
       id="path-effect4658"
       is_visible="true"
       yy="true"
       xx="true"
       bendpath1="m -199.08406,108.42369 h 7.0057"
       bendpath2="m -192.07836,108.42369 v 6.75242"
       bendpath3="m -199.08406,115.17611 h 7.0057"
       bendpath4="m -199.08406,108.42369 v 6.75242" />
    <inkscape:path-effect
       effect="bend_path"
       id="path-effect4656"
       is_visible="true"
       bendpath="m -192.00142,114.60623 c 2.12577,-0.53066 4.48261,0.85111 7.0057,0"
       prop_scale="1"
       scale_y_rel="false"
       vertical="false"
       bendpath-nodetypes="cc" />
    <inkscape:path-effect
       effect="bounding_box"
       id="path-effect4654"
       is_visible="true"
       linkedpath=""
       visualbounds="false" />
  </defs>
  <sodipodi:namedview
     id="base"
     pagecolor="#ffffff"
     bordercolor="#666666"
     borderopacity="1.0"
     inkscape:pageopacity="0.0"
     inkscape:pageshadow="2"
     inkscape:zoom="3.4764403"
     inkscape:cx="160.58548"
     inkscape:cy="108.8041"
     inkscape:document-units="mm"
     inkscape:current-layer="layer1"
     showgrid="false"
     fit-margin-top="0"
     fit-margin-left="0"
     fit-margin-right="0"
     fit-margin-bottom="0"
     inkscape:window-width="1280"
     inkscape:window-height="961"
     inkscape:window-x="-8"
     inkscape:window-y="-8"
     inkscape:window-maximized="1"
     showguides="false"
     inkscape:object-nodes="true"
     units="px"
     inkscape:snap-page="true"
     inkscape:document-rotation="0" />
  <metadata
     id="metadata5">
    <rdf:RDF>
      <cc:Work
         rdf:about="">
        <dc:format>image/svg+xml</dc:format>
        <dc:type
           rdf:resource="http://purl.org/dc/dcmitype/StillImage" />
        <dc:title />
      </cc:Work>
    </rdf:RDF>
  </metadata>
  <g
     inkscape:label="Layer 1"
     inkscape:groupmode="layer"
     id="layer1"
     transform="translate(249.80447,-91.409467)">
    <rect
       ry="3.96875"
       rx="3.96875"
       style="fill:#222222;fill-opacity:1;fill-rule:nonzero;stroke:none;stroke-width:0.5;stroke-linecap:butt;stroke-linejoin:round;stroke-miterlimit:4;stroke-dasharray:none;stroke-dashoffset:0;stroke-opacity:0.909449;paint-order:normal"
       id="rect5322"
       width="52.916668"
       height="52.916668"
       x="-249.80447"
       y="91.40947" />
    <rect
       ry="2.6458333"
       rx="2.6458333"
       y="94.055298"
       x="-247.15863"
       height="47.625"
       width="47.625"
       id="rect5324"
       style="fill:#2331bc;fill-opacity:1;fill-rule:nonzero;stroke:none;stroke-width:0.5;stroke-linecap:butt;stroke-linejoin:round;stroke-miterlimit:4;stroke-dasharray:none;stroke-dashoffset:0;stroke-opacity:0.909449;paint-order:normal" />
    <path
       inkscape:connector-curvature="0"
       id="path5326"
       d="m -248.34926,128.45114 v 8.33437 c 0,3.07817 2.47809,5.55625 5.55625,5.55625 h 38.89375 c 3.07816,0 5.55625,-2.47808 5.55625,-5.55625 v -8.33437 z"
       style="fill:#222222;fill-opacity:1;fill-rule:nonzero;stroke:none;stroke-width:0.5;stroke-linecap:butt;stroke-linejoin:round;stroke-miterlimit:4;stroke-dasharray:none;stroke-dashoffset:0;stroke-opacity:0.909449;paint-order:normal" />
    <text
       xml:space="preserve"
       id="text858"
       style="fill:black;fill-opacity:1;line-height:1.25;stroke:none;font-family:sans-serif;font-style:normal;font-weight:normal;font-size:10.58333333px;white-space:pre;shape-inside:url(#rect860);" />
    <g
       style="fill:#222222;fill-opacity:1"
       transform="matrix(0.02178941,0,0,0.02178941,-230.83151,98.761825)"
       id="g851">
      <path
         d="m 310.5,77.4 c -14.8,3.7 -25.3,14.7 -28.5,30 -2.2,10.8 1.2,22.4 9.1,31.1 2.8,3 6.7,6.4 8.7,7.6 2,1.2 3.8,2.3 4,2.5 0.3,0.2 -2,10 -19.3,81.9 -10.1,41.6 -15.6,64.1 -41.5,169 -6.6,26.9 -17,69.2 -23.1,94 -6.1,24.7 -19.1,77.2 -28.9,116.5 -9.8,39.3 -43.5,174.5 -74.9,300.5 -31.4,125.9 -57.7,231.5 -58.6,234.5 -0.8,3 -1.1,5.8 -0.7,6.2 0.4,0.4 46.4,23.1 102.2,50.4 55.8,27.3 114.7,56.1 130.8,64 l 29.4,14.3 132.1,-66 c 72.7,-36.4 132.3,-66.2 132.5,-66.4 0.3,-0.3 -248.4,-995.4 -249.4,-998 -0.4,-0.9 0.9,-2.1 3.3,-3.3 2.1,-1.1 5.9,-4.2 8.4,-6.9 19.7,-21.1 9.7,-54.4 -18.6,-61.7 -6.9,-1.9 -10.2,-1.9 -17,-0.2 z m 12.9,25 c 5.1,2.1 7.6,6 7.6,11.8 0,4.3 -0.4,5.4 -3.4,8.4 -3,3 -4,3.4 -8.4,3.4 -4,0 -5.7,-0.6 -8.1,-2.6 -7.2,-6 -5.4,-17.1 3.4,-21 3.8,-1.7 4.9,-1.7 8.9,0 z m -23.6,188.3 c -3.9,4 -7.3,7.1 -7.5,7 -0.3,-0.3 11.8,-49.2 13.4,-54.7 0.5,-1.4 0.9,7 1.1,19 l 0.2,21.4 z m 39.6,-18.3 6.4,25.9 -6.9,-6.9 -6.9,-6.8 0.1,-20.1 c 0,-11 0.2,-19.6 0.4,-19 0.3,0.5 3.3,12.7 6.9,26.9 z m -32.8,71.3 c -0.2,0.2 -4.1,-1.4 -8.6,-3.7 l -8.3,-4.2 8.4,-8.4 8.4,-8.5 0.3,12.2 c 0.1,6.7 0.1,12.4 -0.2,12.6 z m 33.8,-15.8 7.9,7.9 -8.2,4.1 -8.1,4.1 v -12 c 0,-6.6 0.1,-12 0.3,-12 0.1,0 3.8,3.6 8.1,7.9 z M 297,367.4 c 0,0.1 -6.7,6.6 -14.9,14.4 l -14.9,14.2 4,-15.8 c 2.1,-8.6 4.3,-17.4 4.9,-19.4 l 1,-3.8 9.9,5 c 5.5,2.8 10,5.2 10,5.4 z m 72.7,27.3 c -0.1,0.1 -6.8,-6 -14.7,-13.6 l -14.5,-13.8 10,-5.1 10,-5 4.7,18.6 c 2.6,10.3 4.6,18.8 4.5,18.9 z m -63,46.9 c -0.6,0.6 -30.8,-17.7 -30.5,-18.5 0.2,-0.4 7.1,-7.2 15.3,-15 l 15,-14.3 0.3,23.8 c 0.1,13 0.1,23.9 -0.1,24 z m 45.1,-28.4 10.3,10.4 -15.1,9.1 -15,9.1 v -23.5 -23.5 l 4.8,4 c 2.6,2.2 9.3,8.7 15,14.4 z m -75,40.3 c 10.5,6 19,11.3 18.9,11.7 -0.1,0.4 -11.4,9.1 -25.2,19.4 -13.7,10.3 -26.4,19.8 -28.1,21.1 l -3.2,2.4 7.9,-31.8 c 9,-35.9 8.6,-34.6 9.7,-34.1 0.5,0.2 9.5,5.2 20,11.3 z m 113.1,21.2 c 4.5,17.8 8.1,32.4 8.1,32.7 0,0.2 -12.6,-9.1 -28,-20.6 L 342,465.7 361.7,454 c 10.9,-6.5 19.9,-11.7 20,-11.6 0.1,0.1 3.8,14.6 8.2,32.3 z m -83.3,94 c -0.5,0.5 -63.6,-31 -63.6,-31.7 0.1,-0.3 14.4,-11.2 31.8,-24.2 l 31.7,-23.7 0.3,39.6 c 0.1,21.8 0,39.8 -0.2,40 z m 58.1,-54.4 30.2,22.6 -18.2,9.4 c -10,5.2 -24.2,12.5 -31.4,16.1 L 332,569 v -39.6 c 0,-31.6 0.3,-39.4 1.3,-38.7 0.6,0.6 14.8,11.2 31.4,23.6 z m -103.3,60.1 c 18,8.8 32.5,16.4 32.3,16.9 -0.3,1 -91,66.8 -91.4,66.3 -0.3,-0.3 23,-95.1 24.2,-98.4 0.3,-0.8 0.9,-1.2 1.4,-1 0.5,0.2 15.6,7.5 33.5,16.2 z M 423.3,608 c 6.8,27.5 12.3,50 12.1,50 -0.2,0 -90.7,-65.3 -92.3,-66.6 -0.4,-0.4 65.6,-33.4 66.8,-33.4 0.5,0 6.5,22.5 13.4,50 z M 307,679.1 c 0,35.8 -0.4,64.9 -0.8,64.7 C 303.1,742.6 204,688.5 204,688 c 0,-0.3 22.6,-16.7 50.1,-36.5 27.5,-19.7 50.3,-36.3 50.5,-36.7 2.1,-3.4 2.4,4.7 2.4,64.3 z M 384.3,652 c 27.3,19.5 49.6,35.7 49.6,36 0,0.5 -98.6,54.1 -100.9,54.8 -0.7,0.3 -1,-21.5 -1,-63.8 0,-54.4 0.2,-64 1.4,-63.3 0.8,0.4 23.7,16.8 50.9,36.3 z m -141.6,86 52.2,28.4 -6.2,4.3 c -50.1,34.8 -138.3,94.8 -138.5,94.2 -0.3,-0.6 35.8,-145.9 37.9,-152.7 0.6,-1.8 1.4,-3.1 1.7,-2.9 0.4,0.2 24.2,13.1 52.9,28.7 z m 225.5,49.2 c 10.8,43.1 19.5,78.4 19.4,78.5 -0.3,0.4 -143.4,-98.3 -143.5,-99.1 -0.2,-0.7 102.2,-57.4 104,-57.5 0.3,-0.1 9.3,35.1 20.1,78.1 z M 307,879 c 0,49.5 -0.3,90 -0.7,90 -1.8,-0.1 -144.8,-79.8 -144.7,-80.6 0.2,-0.9 143.3,-99.3 144.7,-99.4 0.4,0 0.7,40.5 0.7,90 z m 97.2,-40.4 c 38.7,26.7 70.9,49.2 71.6,49.8 1,1 -13.7,9.4 -69,39.6 -38.7,21.1 -71.3,39 -72.5,39.8 l -2.3,1.4 v -90.1 c 0,-55.7 0.4,-90 0.9,-89.6 0.5,0.3 32.6,22.4 71.3,49.1 z M 215.5,947.8 c 39.6,21.7 72.6,39.8 73.4,40.2 1.4,0.7 -0.4,1.5 -77.9,34 -23.9,10 -58.8,24.7 -77.5,32.5 -18.7,7.9 -34.1,14.2 -34.3,14.1 -0.1,-0.2 8.9,-36.8 20,-81.4 19.6,-78.3 20.3,-81 22.3,-80 1.1,0.6 34.4,18.9 74,40.6 z m 302.9,40.1 c 11.3,44.7 19.9,81 19.3,80.8 -74.5,-31.4 -169,-71 -177.2,-74.4 -6,-2.5 -11.3,-4.8 -11.7,-5.2 -0.7,-0.6 148.2,-83.1 149,-82.6 0.1,0.1 9.4,36.8 20.6,81.4 z m -336,81.5 c -52.2,26 -95.1,47.2 -95.3,47 -0.4,-0.3 2.9,-13.5 3.8,-15.2 0.7,-1.2 182.9,-78.8 185.5,-79.1 0.5,-0.1 -41.8,21.2 -94,47.3 z m 272.6,-8.2 91.4,38.4 2.2,8.7 c 1.2,4.8 1.9,8.7 1.5,8.6 -0.3,0 -43.1,-21.4 -95.1,-47.5 -52,-26.1 -93.8,-47.3 -93,-47 0.8,0.2 42.7,17.7 93,38.8 z m -148,79.3 c 0,60.6 -0.4,104.5 -0.9,104.5 -0.5,0 -47.8,-23.5 -105.2,-52.1 L 96.5,1140.8 201,1088.4 c 57.5,-28.7 104.8,-52.3 105.3,-52.3 0.4,-0.1 0.7,46.9 0.7,104.4 z m 233.9,0.1 c 0.3,0.3 -207.4,104.4 -208.4,104.4 -0.3,0 -0.5,-47 -0.5,-104.5 V 1036 l 104.3,52.1 c 57.3,28.7 104.4,52.3 104.6,52.5 z"
         id="path6"
         style="fill:#222222;stroke:none;stroke-width:0.1;fill-opacity:1" />
      <path
         style="fill:#222222;stroke-width:1.09316;fill-opacity:1"
         d="M 88.71995,300.49708 C 82.33021,297.34903 68.00085,278.26123 55.89962,256.77791 16.22315,186.34029 6.9851801,87.9726 32.22635,4.69972 c 10.19946,-33.64905 27.46259,-67.16737 47.13144,-91.51113 6.70524,-8.29894 9.34023,-9.83428 16.87801,-9.83428 4.45075,0 6.03924,0.5821 9.22691,3.38089 4.93788,4.33552 6.88241,10.36384 5.16829,16.02274 -0.68293,2.25465 -3.65902,7.05089 -6.61357,10.65833 -18.94373,23.13003 -33.36467,53.40509 -44.89009,94.24166 -11.65686,41.30215 -12.19395,104.30739 -1.2421,145.70718 4.44894,16.81771 15.63125,47.95343 21.46954,59.7791 6.30822,12.77753 17.19762,29.83299 24.99737,39.15201 5.68598,6.79344 7.63723,11.48265 6.83506,16.42582 -1.74086,10.7276 -12.8139,16.531 -22.46726,11.77504 z m 447.03092,-0.0539 c -4.89112,-2.49401 -7.74969,-6.52051 -8.47658,-11.9398 -0.68288,-5.09148 1.16944,-9.33852 7.30737,-16.75397 7.49797,-9.05867 18.4257,-26.26511 24.51805,-38.60542 5.8383,-11.82572 17.02061,-42.96139 21.46955,-59.7791 10.95185,-41.39979 10.41476,-104.40503 -1.2421,-145.70718 -11.30641,-40.06063 -26.41553,-72.04109 -43.95344,-93.03351 -8.59757,-10.29104 -10.15294,-16.00748 -6.36362,-23.38822 2.69553,-5.2502 7.85963,-8.24312 14.06125,-8.14939 8.31953,0.12586 14.58732,6.2902 29.73148,29.24144 43.13612,65.37341 58.23108,157.55164 39.83003,243.22319 -8.01137,37.29935 -22.05627,70.91235 -42.08706,100.72503 -16.28609,24.23921 -24.06181,29.63986 -34.79493,24.16693 z M 166.73129,239.66892 c -11.00305,-4.9917 -30.02692,-36.44003 -39.79894,-65.79155 -8.64534,-25.96744 -11.60918,-47.77799 -10.69089,-78.67354 0.95668,-32.18707 5.55602,-54.1396 16.83387,-80.34732 9.05806,-21.04934 24.74246,-44.88427 32.00821,-48.6415 7.31333,-3.78188 17.76208,-0.88102 21.27155,5.90561 2.96408,5.73189 2.20769,12.26427 -2.11834,18.29369 -2.09613,2.92156 -5.33453,7.42765 -7.19639,10.01353996 C 165.34994,16.66431 155.83965,40.02355 150.7495,65.00352 c -2.81467,13.81296 -3.91198,44.66045 -2.14366,60.26228 3.82598,33.75698 16.88603,66.42828 35.73522,89.39607 5.87486,7.15858 4.40526,19.28517 -2.85706,23.57511 -4.27554,2.52563 -10.92029,3.17056 -14.75271,1.43194 z m 292.96716,-0.071 c -8.46776,-3.76352 -11.69076,-13.51866 -7.30599,-22.11347 1.22484,-2.40086 2.98215,-4.99199 3.90512,-5.75797 2.96446,-2.46026 12.8938,-18.79326 17.63121,-29.00188 8.27954,-17.8416 13.61044,-37.08191 15.91991,-57.45857 1.76832,-15.60188 0.67097,-46.44932 -2.14371,-60.26228 -5.53904,-27.18293 -15.56187,-50.67018 -29.34013,-68.75468 -6.64589,-8.72295 -7.96126,-11.57905 -7.95106,-17.26451 0.0238,-11.65628 14.20131,-18.52705 24.20626,-11.72846 13.86302,9.42014 35.53494,51.80072 42.50888,83.12838 4.7816,21.47936 6.77027,55.82049 4.45699,76.96337 -3.64425,33.30685 -15.2982,67.27188 -31.54267,91.92995 -13.17298,19.9958 -20.31454,24.77807 -30.34481,20.32008 z M 237.14569,178.8766 c -4.90288,-1.48137 -8.25627,-4.30677 -12.75264,-10.74476 -8.41245,-12.04506 -14.15349,-25.97892 -17.43632,-42.31937 -2.57483,-12.8159 -2.29388,-36.50123 0.58591,-49.39985 4.87891,-21.85304 16.88907,-44.05704 26.52603,-49.0405 8.93129,-4.61856 20.52331,1.12282 22.39342,11.09116 0.98961,5.27527 0.17449,7.50002 -6.48967,17.71445 -10.50953,16.10808 -15.15507,36.76474 -12.74377,56.66585 1.88974,15.59654 6.11571,26.88311 14.63934,39.09833 3.88194,5.56322 4.49432,7.22051 4.44312,12.02475 -0.0911,8.54828 -4.47616,13.85763 -12.51199,15.14922 -2.10433,0.33848 -5.09835,0.23074 -6.65343,-0.23933 z m 152.59045,-0.2398 c -4.4918,-1.6222 -7.00521,-4.00862 -8.83551,-8.38923 -2.4309,-5.81785 -1.87626,-9.07937 2.82859,-16.63455 7.38288,-11.85551 10.98837,-19.49174 13.05213,-27.64356 6.21916,-24.56577 2.30685,-50.58145 -10.52222,-69.96917 -6.4223,-9.70566 -7.72509,-14.03874 -5.8914,-19.5949 2.79412,-8.46642 11.94647,-12.6869 20.50214,-9.45432 9.99189,3.77515 22.65352,26.24594 27.8702,49.46164 2.65606,11.82005 3.18677,36.33018 1.03419,47.76011 -3.12288,16.58225 -9.49956,32.0545 -18.35958,44.54708 -6.58711,9.28789 -14.01347,12.68509 -21.67854,9.9169 z"
         id="path847"
         sodipodi:nodetypes="ssssssssssssssssssssssssssssssssssssssssssssssscssssssssssssssssssssssssssssss" />
    </g>
    <g
       aria-label="CONVENTIONALIST"
       transform="scale(0.94124547,1.0624221)"
       id="text911"
       style="font-weight:bold;font-size:4.9707px;line-height:1.25;font-family:Montserrat;-inkscape-font-specification:'Montserrat Bold';fill:#eeeeee;fill-opacity:1;stroke-width:0.355049">
      <path
         d="m -260.36869,129.99336 q -0.53186,0 -0.96431,-0.22865 -0.42749,-0.23362 -0.67602,-0.64122 -0.24356,-0.41257 -0.24356,-0.92952 0,-0.51695 0.24356,-0.92455 0.24853,-0.41257 0.67602,-0.64122 0.43245,-0.23362 0.96928,-0.23362 0.45234,0 0.8152,0.15906 0.36783,0.15906 0.61636,0.4573 l -0.51695,0.47719 q -0.35292,-0.4076 -0.87484,-0.4076 -0.3231,0 -0.5766,0.14415 -0.25351,0.13918 -0.39766,0.39269 -0.13918,0.25351 -0.13918,0.5766 0,0.3231 0.13918,0.5766 0.14415,0.25351 0.39766,0.39766 0.2535,0.13918 0.5766,0.13918 0.52192,0 0.87484,-0.41257 l 0.51695,0.47719 q -0.24853,0.30321 -0.61636,0.46227 -0.36784,0.15906 -0.82017,0.15906 z"
         style="fill:#eeeeee;fill-opacity:1;stroke-width:0.355049"
         id="path913" />
      <path
         d="m -256.77985,129.99336 q -0.54181,0 -0.97923,-0.23362 -0.43245,-0.23362 -0.68099,-0.64122 -0.24356,-0.41257 -0.24356,-0.92455 0,-0.51198 0.24356,-0.91958 0.24854,-0.41257 0.68099,-0.64619 0.43742,-0.23362 0.97923,-0.23362 0.5418,0 0.97426,0.23362 0.43245,0.23362 0.68098,0.64619 0.24854,0.4076 0.24854,0.91958 0,0.51198 -0.24854,0.92455 -0.24853,0.4076 -0.68098,0.64122 -0.43246,0.23362 -0.97426,0.23362 z m 0,-0.68595 q 0.30818,0 0.55672,-0.13918 0.24853,-0.14415 0.38771,-0.39766 0.14415,-0.2535 0.14415,-0.5766 0,-0.32309 -0.14415,-0.5766 -0.13918,-0.25351 -0.38771,-0.39269 -0.24854,-0.14415 -0.55672,-0.14415 -0.30818,0 -0.55672,0.14415 -0.24853,0.13918 -0.39269,0.39269 -0.13917,0.25351 -0.13917,0.5766 0,0.3231 0.13917,0.5766 0.14416,0.25351 0.39269,0.39766 0.24854,0.13918 0.55672,0.13918 z"
         style="fill:#eeeeee;fill-opacity:1;stroke-width:0.355049"
         id="path915" />
      <path
         d="m -251.07846,126.45423 v 3.47949 h -0.6611 l -1.73478,-2.11255 v 2.11255 h -0.79531 v -3.47949 h 0.66608 l 1.7298,2.11254 v -2.11254 z"
         style="fill:#eeeeee;fill-opacity:1;stroke-width:0.355049"
         id="path917" />
      <path
         d="m -246.92794,126.45423 -1.50612,3.47949 h -0.79531 l -1.50116,-3.47949 h 0.86988 l 1.05876,2.48535 1.07367,-2.48535 z"
         style="fill:#eeeeee;fill-opacity:1;stroke-width:0.355049"
         id="path919" />
      <path
         d="m -243.94553,129.28752 v 0.6462 h -2.69412 v -3.47949 h 2.6295 v 0.64619 h -1.82922 v 0.75554 h 1.61548 v 0.62631 h -1.61548 v 0.80525 z"
         style="fill:#eeeeee;fill-opacity:1;stroke-width:0.355049"
         id="path921" />
      <path
         d="m -240.11313,126.45423 v 3.47949 h -0.6611 l -1.73477,-2.11255 v 2.11255 h -0.79532 v -3.47949 h 0.66608 l 1.7298,2.11254 v -2.11254 z"
         style="fill:#eeeeee;fill-opacity:1;stroke-width:0.355049"
         id="path923" />
      <path
         d="m -238.56725,127.11036 h -1.11343 v -0.65613 h 3.03212 v 0.65613 h -1.11343 v 2.82336 h -0.80526 z"
         style="fill:#eeeeee;fill-opacity:1;stroke-width:0.355049"
         id="path925" />
      <path
         d="m -236.21612,126.45423 h 0.80526 v 3.47949 h -0.80526 z"
         style="fill:#eeeeee;fill-opacity:1;stroke-width:0.355049"
         id="path927" />
      <path
         d="m -232.90066,129.99336 q -0.54181,0 -0.97923,-0.23362 -0.43245,-0.23362 -0.68099,-0.64122 -0.24356,-0.41257 -0.24356,-0.92455 0,-0.51198 0.24356,-0.91958 0.24854,-0.41257 0.68099,-0.64619 0.43742,-0.23362 0.97923,-0.23362 0.5418,0 0.97426,0.23362 0.43245,0.23362 0.68098,0.64619 0.24854,0.4076 0.24854,0.91958 0,0.51198 -0.24854,0.92455 -0.24853,0.4076 -0.68098,0.64122 -0.43246,0.23362 -0.97426,0.23362 z m 0,-0.68595 q 0.30818,0 0.55672,-0.13918 0.24853,-0.14415 0.38771,-0.39766 0.14415,-0.2535 0.14415,-0.5766 0,-0.32309 -0.14415,-0.5766 -0.13918,-0.25351 -0.38771,-0.39269 -0.24854,-0.14415 -0.55672,-0.14415 -0.30818,0 -0.55672,0.14415 -0.24853,0.13918 -0.39269,0.39269 -0.13917,0.25351 -0.13917,0.5766 0,0.3231 0.13917,0.5766 0.14416,0.25351 0.39269,0.39766 0.24854,0.13918 0.55672,0.13918 z"
         style="fill:#eeeeee;fill-opacity:1;stroke-width:0.355049"
         id="path929" />
      <path
         d="m -227.19927,126.45423 v 3.47949 h -0.6611 l -1.73478,-2.11255 v 2.11255 h -0.79531 v -3.47949 h 0.66607 l 1.72981,2.11254 v -2.11254 z"
         style="fill:#eeeeee;fill-opacity:1;stroke-width:0.355049"
         id="path931" />
      <path
         d="m -224.08265,129.18811 h -1.61548 l -0.30818,0.74561 h -0.82514 l 1.55086,-3.47949 h 0.79532 l 1.55582,3.47949 h -0.84501 z m -0.2535,-0.6114 -0.55175,-1.33214 -0.55175,1.33214 z"
         style="fill:#eeeeee;fill-opacity:1;stroke-width:0.355049"
         id="path933" />
      <path
         d="m -222.56659,126.45423 h 0.80525 v 2.82335 h 1.74472 v 0.65614 h -2.54997 z"
         style="fill:#eeeeee;fill-opacity:1;stroke-width:0.355049"
         id="path935" />
      <path
         d="m -219.5643,126.45423 h 0.80526 v 3.47949 h -0.80526 z"
         style="fill:#eeeeee;fill-opacity:1;stroke-width:0.355049"
         id="path937" />
      <path
         d="m -216.79065,129.99336 q -0.41257,0 -0.80028,-0.10935 -0.38275,-0.11433 -0.61637,-0.29327 l 0.27339,-0.60643 q 0.22368,0.16404 0.53186,0.26345 0.30819,0.0994 0.61637,0.0994 0.34298,0 0.50701,-0.0994 0.16403,-0.10439 0.16403,-0.27339 0,-0.12427 -0.0994,-0.2038 -0.0944,-0.0845 -0.24854,-0.13421 -0.14912,-0.0497 -0.40759,-0.10935 -0.39766,-0.0944 -0.65117,-0.18889 -0.2535,-0.0944 -0.43742,-0.30321 -0.17894,-0.20877 -0.17894,-0.55672 0,-0.30321 0.16403,-0.54678 0.16403,-0.24853 0.4921,-0.39268 0.33304,-0.14415 0.81022,-0.14415 0.33304,0 0.65117,0.0795 0.31812,0.0795 0.55671,0.22865 l -0.24853,0.6114 q -0.48216,-0.27339 -0.96432,-0.27339 -0.338,0 -0.50204,0.10935 -0.15906,0.10936 -0.15906,0.2883 0,0.17895 0.18392,0.26842 0.18888,0.0845 0.57163,0.16901 0.39765,0.0944 0.65116,0.18888 0.2535,0.0944 0.43245,0.29824 0.18392,0.2038 0.18392,0.55175 0,0.29824 -0.16901,0.54678 -0.16403,0.24356 -0.49707,0.38771 -0.33304,0.14415 -0.81022,0.14415 z"
         style="fill:#eeeeee;fill-opacity:1;stroke-width:0.355049"
         id="path939" />
      <path
         d="m -214.09157,127.11036 h -1.11344 v -0.65613 h 3.03213 v 0.65613 h -1.11343 v 2.82336 h -0.80526 z"
         style="fill:#eeeeee;fill-opacity:1;stroke-width:0.355049"
         id="path941" />
    </g>
  </g>
</svg>
